<?xml version="1.0" encoding="UTF-8"?>
<!-- Generator: https://ezgif.com/png-to-svg -->
<svg version="1.1" xmlns="http://www.w3.org/2000/svg" width="512" height="512">
<path d="M0 0 C1.76 -0.01 1.76 -0.01 3.56 -0.01 C6.79 -0.02 10.01 -0.02 13.24 -0.02 C16.73 -0.01 20.22 -0.02 23.72 -0.03 C30.55 -0.04 37.38 -0.04 44.21 -0.04 C49.76 -0.04 55.32 -0.04 60.87 -0.05 C61.67 -0.05 62.46 -0.05 63.28 -0.05 C64.89 -0.05 66.5 -0.05 68.11 -0.05 C83.2 -0.06 98.29 -0.06 113.38 -0.05 C127.16 -0.05 140.93 -0.06 154.71 -0.08 C168.88 -0.1 183.06 -0.11 197.23 -0.1 C205.18 -0.1 213.12 -0.1 221.07 -0.12 C227.84 -0.13 234.6 -0.13 241.37 -0.12 C244.81 -0.11 248.26 -0.11 251.7 -0.12 C265.36 -0.16 278.44 -0.15 291.73 3.26 C292.62 3.49 293.51 3.71 294.43 3.95 C296.5 4.5 298.52 5.13 300.54 5.82 C301.65 6.2 301.65 6.2 302.77 6.58 C335.09 18.16 361.26 41.97 376.17 72.76 C383.89 89.34 388.06 106.19 387.99 124.53 C388 125.7 388 126.88 388 128.09 C388.01 131.32 388.01 134.54 388.01 137.77 C388 141.26 388.01 144.75 388.02 148.25 C388.03 155.08 388.04 161.91 388.03 168.74 C388.03 174.29 388.03 179.85 388.04 185.4 C388.04 186.2 388.04 186.99 388.04 187.81 C388.04 189.42 388.04 191.03 388.04 192.64 C388.05 207.73 388.05 222.82 388.05 237.91 C388.04 251.69 388.05 265.46 388.07 279.24 C388.09 293.41 388.1 307.59 388.09 321.76 C388.09 329.71 388.1 337.65 388.11 345.6 C388.12 352.36 388.12 359.13 388.11 365.9 C388.1 369.34 388.1 372.79 388.12 376.23 C388.15 389.89 388.14 402.97 384.73 416.26 C384.51 417.15 384.28 418.04 384.05 418.96 C383.49 421.03 382.86 423.05 382.17 425.07 C381.92 425.81 381.67 426.54 381.41 427.3 C369.83 459.62 346.02 485.79 315.23 500.7 C298.65 508.42 281.8 512.59 263.46 512.52 C262.29 512.53 261.11 512.53 259.9 512.53 C256.68 512.54 253.45 512.54 250.22 512.54 C246.73 512.53 243.24 512.54 239.75 512.55 C232.92 512.56 226.09 512.57 219.26 512.56 C213.7 512.56 208.14 512.56 202.59 512.57 C201.79 512.57 201 512.57 200.18 512.57 C198.57 512.57 196.96 512.57 195.35 512.57 C180.26 512.58 165.17 512.58 150.08 512.58 C136.31 512.57 122.53 512.58 108.76 512.6 C94.58 512.62 80.41 512.63 66.23 512.62 C58.28 512.62 50.34 512.62 42.39 512.64 C35.63 512.65 28.86 512.65 22.1 512.64 C18.65 512.63 15.21 512.63 11.76 512.65 C-1.9 512.68 -14.97 512.67 -28.27 509.26 C-29.16 509.03 -30.05 508.81 -30.97 508.58 C-33.04 508.02 -35.05 507.39 -37.08 506.7 C-38.19 506.32 -38.19 506.32 -39.31 505.94 C-71.62 494.36 -97.8 470.55 -112.71 439.76 C-120.43 423.18 -124.59 406.33 -124.53 387.99 C-124.53 386.82 -124.54 385.64 -124.54 384.43 C-124.55 381.21 -124.55 377.98 -124.55 374.75 C-124.54 371.26 -124.55 367.77 -124.56 364.28 C-124.57 357.45 -124.57 350.62 -124.57 343.79 C-124.57 338.23 -124.57 332.67 -124.58 327.12 C-124.58 326.32 -124.58 325.53 -124.58 324.71 C-124.58 323.1 -124.58 321.49 -124.58 319.88 C-124.59 304.79 -124.59 289.7 -124.58 274.61 C-124.58 260.84 -124.59 247.06 -124.61 233.29 C-124.63 219.11 -124.64 204.93 -124.63 190.76 C-124.63 182.81 -124.63 174.87 -124.65 166.92 C-124.66 160.16 -124.66 153.39 -124.65 146.63 C-124.64 143.18 -124.64 139.74 -124.65 136.29 C-124.69 122.63 -124.68 109.56 -121.27 96.26 C-121.04 95.37 -120.82 94.48 -120.58 93.56 C-120.03 91.49 -119.4 89.48 -118.71 87.45 C-118.46 86.71 -118.2 85.98 -117.95 85.22 C-106.37 52.91 -82.56 26.73 -51.77 11.82 C-35.19 4.1 -18.34 -0.06 0 0 Z " fill="#F37816" transform="translate(124.26898193359375,-0.2606964111328125)"/>
<path d="M0 0 C12.02 8.36 20.78 20.37 23.64 34.93 C25.7 50.72 22.99 65.18 13.8 78.36 C4.73 90.05 -7.56 96.81 -22 99.69 C-36.12 101.31 -49.18 99.08 -61 90.81 C-62.69 89.47 -64.36 88.1 -66 86.69 C-66.67 86.12 -67.33 85.55 -68.02 84.97 C-77.89 75.85 -83.69 62.42 -84.34 49.07 C-84.67 31.86 -80.24 19.11 -68.25 6.38 C-63.31 1.66 -58.2 -1.5 -52 -4.31 C-51.18 -4.72 -50.37 -5.14 -49.53 -5.56 C-33.74 -12.59 -14.33 -8.58 0 0 Z " fill="#FEFDFC" transform="translate(402,210.3125)"/>
<path d="M0 0 C10.6 7.71 19.31 18.27 22.7 31.16 C25.18 48.69 22.38 64.55 12.12 79.19 C2.64 90.49 -10.26 97.63 -24.97 99.45 C-39.83 100.56 -53 97.06 -64.8 87.93 C-70.9 82.67 -75.31 77.4 -78.88 70.19 C-79.26 69.41 -79.65 68.64 -80.05 67.84 C-85.97 55.29 -86.81 41.33 -82.91 27.99 C-77.4 13.03 -66.68 1.7 -52.31 -5.12 C-34.77 -12.93 -15.84 -9.75 0 0 Z " fill="#FEFDFC" transform="translate(164.875,210.8125)"/>
<path d="M0 0 C9.87 7.99 17.76 19.37 20 32 C20.31 35.71 20.41 39.4 20.44 43.12 C20.45 44.04 20.46 44.96 20.47 45.91 C20.28 60.33 14.18 72.41 4.35 82.78 C-8.43 94.86 -22.6 97.5 -39.52 97.28 C-53.93 96.79 -65.17 89.11 -75 79 C-86.31 65.05 -88.19 50.36 -87 33 C-84.8 19.83 -77.33 8.34 -67 0 C-45.31 -14.66 -21.74 -14.85 0 0 Z " fill="#FEFDFB" transform="translate(346,319)"/>
<path d="M0 0 C9.78 8.35 18.27 19.39 19.53 32.56 C19.69 35.57 19.76 38.57 19.77 41.58 C19.78 42.54 19.79 43.51 19.79 44.5 C19.53 59.06 13.58 71.17 3.62 81.68 C-9.16 93.76 -23.33 96.4 -40.24 96.17 C-54.66 95.68 -65.9 88 -75.73 77.89 C-87.26 63.67 -88.92 48.58 -87.73 30.89 C-85.53 18.27 -77.58 6.88 -67.73 -1.11 C-46.23 -15.95 -20.89 -16.13 0 0 Z " fill="#FEFDFC" transform="translate(227.7265625,320.10546875)"/>
<path d="M0 0 C0.95 -0.02 1.9 -0.04 2.88 -0.06 C17.49 -0.14 29.63 5.85 40.15 15.84 C46.79 22.84 50.6 30.07 53.44 39.25 C53.77 40.24 54.1 41.23 54.44 42.25 C54.69 45.77 54.67 49.29 54.69 52.81 C54.71 53.76 54.73 54.72 54.75 55.7 C54.83 70.36 48.79 82.48 38.79 93.03 C25.82 105.28 11.36 107.84 -5.8 107.59 C-19.79 107.04 -30.69 99.47 -40.31 89.69 C-52.21 75.91 -53.77 59.78 -52.56 42.25 C-50.11 28.63 -40.7 16.57 -29.75 8.44 C-24.67 5.05 -19.37 3.05 -13.56 1.25 C-9.09 -0.24 -4.69 0.02 0 0 Z " fill="#FEFDFC" transform="translate(311.5625,95.75)"/>
<path d="M0 0 C0.95 -0.02 1.9 -0.04 2.88 -0.06 C17.49 -0.14 29.63 5.85 40.15 15.84 C50.4 26.64 54.61 38.73 54.69 53.38 C54.71 54.27 54.73 55.17 54.75 56.1 C54.83 70.56 48.62 82.64 38.79 93.03 C25.94 105.15 11.18 107.96 -5.87 107.62 C-19.83 106.98 -30.7 99.46 -40.31 89.69 C-52.21 75.91 -53.77 59.78 -52.56 42.25 C-50.11 28.63 -40.7 16.57 -29.75 8.44 C-24.67 5.05 -19.37 3.05 -13.56 1.25 C-9.09 -0.24 -4.69 0.02 0 0 Z " fill="#FEFDFC" transform="translate(192.5625,95.75)"/>
<path d="M0 0 C7.16 6.41 9.34 12.55 9.96 22.01 C10.07 29.94 7.21 36.03 2 42 C-5.17 47.92 -11.64 50.5 -20.94 50.31 C-29.01 49.49 -35.77 45.1 -41 39 C-45.96 31.48 -47.34 23.87 -46 15 C-43.47 6.43 -37.64 0.38 -30.06 -4.16 C-19.64 -8.83 -9.09 -6.2 0 0 Z " fill="#F49119" transform="translate(390,234)"/>
<path d="M0 0 C5.4 4.14 10.44 9.41 11.94 16.25 C12.9 26.84 11.42 33.74 4.94 42.25 C-1.82 48.71 -8.84 51.22 -18.06 51.25 C-26 50.64 -32.68 47.16 -37.89 41.14 C-43.46 33.3 -44.65 26.65 -43.59 17.14 C-42.1 8.96 -37.78 3.98 -31.06 -0.75 C-20.61 -7.35 -10.25 -5.86 0 0 Z " fill="#F48F19" transform="translate(150.0625,232.75)"/>
<path d="M0 0 C0.7 0.01 1.41 0.01 2.13 0.02 C10.55 0.31 16.42 3.23 22.19 9.38 C28.52 17.44 29.15 24.33 28.25 34.5 C26.16 42.29 21.71 47.9 15.16 52.49 C7.6 56.49 -1.51 57.07 -9.67 54.62 C-17.58 50.98 -22.8 45.2 -26.05 37.15 C-28.27 28.72 -27.77 20.26 -23.37 12.69 C-17.48 4.74 -10.04 -0.1 0 0 Z " fill="#F48F18" transform="translate(311.75,334.5)"/>
<path d="M0 0 C0.7 0.01 1.41 0.01 2.13 0.02 C10.55 0.31 16.42 3.23 22.19 9.38 C27.72 16.42 28.94 21.91 28.73 30.86 C27.75 38.31 24.38 44.91 18.88 50.06 C11.03 55.83 2.85 56.63 -6.75 55.5 C-14.79 53.08 -19.59 48.45 -24 41.54 C-27.92 34.2 -28.24 25.56 -25.9 17.62 C-21.13 7.01 -11.79 -0.11 0 0 Z " fill="#F48E18" transform="translate(192.75,334.5)"/>
<path d="M0 0 C6.23 4.04 11.37 10.27 13.25 17.46 C13.98 27.62 13.43 35.35 7.03 43.5 C1.67 49.43 -3.07 52.17 -11.05 52.66 C-20.85 52.79 -26.72 51.88 -34.11 45.21 C-41.09 37.77 -42.12 30.89 -42.02 20.94 C-41.65 16.26 -40.47 13.23 -37.75 9.46 C-37.33 8.85 -36.92 8.23 -36.5 7.6 C-27.9 -3.83 -12.67 -5.89 0 0 Z " fill="#F48E19" transform="translate(207.74609375,124.5390625)"/>
<path d="M0 0 C5.88 3.79 11.72 8.48 13.55 15.55 C14.02 18.63 14.13 21.59 14.15 24.7 C14.16 25.79 14.18 26.89 14.19 28.01 C13.63 35.98 9.77 41.81 3.96 47.07 C-3.72 53.13 -11.47 52.86 -21.04 52.27 C-27.76 50.87 -33.01 46.2 -36.81 40.7 C-41.19 32.98 -42.28 26.05 -41.04 17.27 C-40.14 14.19 -38.91 11.86 -37.04 9.27 C-36.63 8.65 -36.21 8.04 -35.79 7.41 C-27.43 -3.7 -12.24 -6.46 0 0 Z " fill="#F48F18" transform="translate(326.0390625,124.734375)"/>
</svg>
